{"title":"Saving.General.Yang.2013.DVDRip.XviD-eXceSs","uid":9386159,"size":733480098,"categoryP":"video","categoryS":"movies","magnet":"?xt=urn:btih:e3b4881b444883181f747a2360a42022fae6c54c&amp;dn=Saving.General.Yang.2013.DVDRip.XviD-eXceSs&amp;tr=udp%3A%2F%2Ftracker.openbittorrent.com%3A80&amp;tr=udp%3A%2F%2Fopen.demonii.com%3A1337&amp;tr=udp%3A%2F%2Ftracker.coppersurfer.tk%3A6969&amp;tr=udp%3A%2F%2Fexodus.desync.com%3A6969","seeders":2,"leechers":3,"uploader":"xxxlavalxxx","files":-1,"time":1387760178,"description":" &lt;a href=&quot;\nhttp://www.imdb.com/title/tt2072220/&quot; rel=&quot;nofollow&quot; target=&quot;_NEW&quot;&gt;\nhttp://www.imdb.com/title/tt2072220/&lt;/a&gt;\n\n\n\nNortheast China, early Northern Song dynasty, AD 986. The Khitan army takes its revenge for a past massacre, abducting General Yang Ye (Adam Cheng) and leaving his wife and seven sons to rescue him - and fall into their deadly trap. Led by the first son (Ekin Cheng), the seven - two of whom have never seen combat - set out with a small band of fighters to face an army of thousands, brave the treacherous Wolf Mountain, face the nemesis of their shared history, and find the way back alive - all to bring their father home.  \n\nDirector: Ronny Yu\nWriters: Kat Lo (translation), Edmond Wong\nStars: Ady An, Adam Cheng, Ekin Cheng\nGenres: Action | Thriller\nCountry: Hong Kong | China\nLanguage: Mandarin\n\n\nFormat                                   : AVI\nFormat/Info                              : Audio Video Interleave\nFile size                                : 700 MiB\nDuration                                 : 1h 41mn\nOverall bit rate                         : 961 Kbps\nWriting application                      : VirtualDubMod 1.5.4.1 (build 2178/release)\nWriting library                          : VirtualDubMod build 2178/release\n\nVideo\nID                                       : 0\nFormat                                   : MPEG-4 Visual\nFormat profile                           : Advanced Simple@L5\nFormat settings, BVOP                    : 1\nFormat settings, QPel                    : No\nFormat settings, GMC                     : No warppoints\nFormat settings, Matrix                  : Custom\nCodec ID                                 : XVID\nCodec ID/Hint                            : XviD\nDuration                                 : 1h 41mn\nBit rate                                 : 826 Kbps\nWidth                                    : 720 pixels\nHeight                                   : 304 pixels\nDisplay aspect ratio                     : 2.35:1\nFrame rate                               : 23.976 fps\nColor space                              : YUV\nChroma subsampling                       : 4:2:0\nBit depth                                : 8 bits\nScan type                                : Progressive\nCompression mode                         : Lossy\nBits/(Pixel*Frame)                       : 0.157\nStream size                              : 601 MiB (86%)\nWriting library                          : XviD 64\n\nAudio\nID                                       : 1\nFormat                                   : MPEG Audio\nFormat version                           : Version 1\nFormat profile                           : Layer 3\nMode                                     : Joint stereo\nCodec ID                                 : 55\nCodec ID/Hint                            : MP3\nDuration                                 : 1h 41mn\nBit rate mode                            : Constant\nBit rate                                 : 128 Kbps\nChannel(s)                               : 2 channels\nSampling rate                            : 48.0 KHz\nCompression mode                         : Lossy\nStream size                              : 93.2 MiB (13%)\nAlignment                                : Aligned on interleaves\nInterleave, duration                     : 83 ms (2.00 video frames)\nInterleave, preload duration             : 504 ms\nWriting library                          : LAME3.98r\nEncoding settings                        : -m j -V 4 -q 2 -lowpass 17 -b 128\nLanguage                                 : English\n\n\n\n\nscreens\n &lt;a href=&quot;\nhttp://i.imgur.com/AfFpNKv.jpg&quot; rel=&quot;nofollow&quot; target=&quot;_NEW&quot;&gt;\nhttp://i.imgur.com/AfFpNKv.jpg&lt;/a&gt; &lt;a href=&quot;\nhttp://i.imgur.com/QG24c4J.jpg&quot; rel=&quot;nofollow&quot; target=&quot;_NEW&quot;&gt;\nhttp://i.imgur.com/QG24c4J.jpg&lt;/a&gt; &lt;a href=&quot;\nhttp://i.imgur.com/DEJMiNV.jpg&quot; rel=&quot;nofollow&quot; target=&quot;_NEW&quot;&gt;\nhttp://i.imgur.com/DEJMiNV.jpg&lt;/a&gt; &lt;a href=&quot;\nhttp://i.imgur.com/CYRPg3m.jpg&quot; rel=&quot;nofollow&quot; target=&quot;_NEW&quot;&gt;\nhttp://i.imgur.com/CYRPg3m.jpg&lt;/a&gt; &lt;a href=&quot;\nhttp://i.imgur.com/U80qul7.jpg&quot; rel=&quot;nofollow&quot; target=&quot;_NEW&quot;&gt;\nhttp://i.imgur.com/U80qul7.jpg&lt;/a&gt;","torrent":{"xt":"urn:btih:e3b4881b444883181f747a2360a42022fae6c54c","amp;dn":"Saving.General.Yang.2013.DVDRip.XviD-eXceSs","amp;tr":["udp%3A%2F%2Ftracker.openbittorrent.com%3A80","udp%3A%2F%2Fopen.demonii.com%3A1337","udp%3A%2F%2Ftracker.coppersurfer.tk%3A6969","udp%3A%2F%2Fexodus.desync.com%3A6969"],"infoHash":"e3b4881b444883181f747a2360a42022fae6c54c","infoHashBuffer":{"type":"Buffer","data":[227,180,136,27,68,72,131,24,31,116,122,35,96,164,32,34,250,230,197,76]},"announce":[],"urlList":[]}}